<svg width="602" height="120" viewBox="0 0 602 120" fill="none" xmlns="http://www.w3.org/2000/svg">
<path d="M187.807 97V24.2727H231.699V32.0852H196.614V56.6591H229.426V64.4716H196.614V89.1875H232.267V97H187.807ZM262.487 98.2784C259.031 98.2784 255.894 97.6274 253.077 96.3253C250.259 94.9995 248.022 93.0938 246.365 90.608C244.708 88.0985 243.879 85.0682 243.879 81.517C243.879 78.392 244.495 75.8589 245.726 73.9176C246.957 71.9527 248.602 70.4138 250.662 69.3011C252.722 68.1884 254.994 67.3598 257.48 66.8153C259.99 66.2472 262.511 65.7973 265.044 65.4659C268.358 65.0398 271.045 64.7202 273.105 64.5071C275.188 64.2704 276.704 63.8797 277.651 63.3352C278.621 62.7907 279.107 61.8437 279.107 60.4943V60.2102C279.107 56.7064 278.148 53.9839 276.23 52.0426C274.336 50.1013 271.46 49.1307 267.601 49.1307C263.6 49.1307 260.463 50.0066 258.19 51.7585C255.918 53.5104 254.32 55.3807 253.396 57.3693L245.442 54.5284C246.862 51.214 248.756 48.6335 251.124 46.7869C253.515 44.9167 256.119 43.6146 258.936 42.8807C261.777 42.1231 264.571 41.7443 267.317 41.7443C269.069 41.7443 271.081 41.9574 273.354 42.3835C275.65 42.786 277.864 43.6264 279.994 44.9048C282.149 46.1832 283.936 48.1127 285.357 50.6932C286.777 53.2737 287.487 56.7301 287.487 61.0625V97H279.107V89.6136H278.68C278.112 90.7973 277.165 92.0639 275.839 93.4134C274.514 94.7628 272.75 95.911 270.548 96.858C268.347 97.8049 265.66 98.2784 262.487 98.2784ZM263.766 90.75C267.08 90.75 269.874 90.099 272.146 88.7969C274.443 87.4948 276.171 85.8139 277.331 83.7543C278.515 81.6946 279.107 79.5284 279.107 77.2557V69.5852C278.751 70.0114 277.97 70.402 276.763 70.7571C275.579 71.0885 274.206 71.3845 272.643 71.6449C271.105 71.8816 269.601 72.0947 268.134 72.2841C266.689 72.4498 265.518 72.5919 264.618 72.7102C262.44 72.9943 260.404 73.456 258.51 74.0952C256.64 74.7107 255.125 75.6458 253.964 76.9006C252.828 78.1316 252.26 79.8125 252.26 81.9432C252.26 84.8551 253.337 87.0568 255.491 88.5483C257.67 90.0161 260.428 90.75 263.766 90.75ZM341.42 54.6705L333.892 56.8011C333.418 55.5464 332.72 54.3272 331.797 53.1435C330.897 51.9361 329.666 50.9418 328.103 50.1605C326.541 49.3793 324.54 48.9886 322.102 48.9886C318.764 48.9886 315.982 49.758 313.757 51.2969C311.555 52.812 310.454 54.7415 310.454 57.0852C310.454 59.1686 311.212 60.8139 312.727 62.0213C314.242 63.2287 316.609 64.2348 319.829 65.0398L327.926 67.0284C332.803 68.2121 336.437 70.0232 338.828 72.4616C341.219 74.8764 342.414 77.9896 342.414 81.8011C342.414 84.9261 341.515 87.7197 339.716 90.1818C337.94 92.6439 335.454 94.5852 332.258 96.0057C329.062 97.4261 325.345 98.1364 321.108 98.1364C315.544 98.1364 310.94 96.929 307.294 94.5142C303.648 92.0994 301.34 88.572 300.369 83.9318L308.324 81.9432C309.081 84.8788 310.513 87.0805 312.62 88.5483C314.751 90.0161 317.533 90.75 320.966 90.75C324.872 90.75 327.973 89.9214 330.27 88.2642C332.59 86.5833 333.75 84.571 333.75 82.2273C333.75 80.3333 333.087 78.7472 331.761 77.4688C330.435 76.1667 328.399 75.196 325.653 74.5568L316.562 72.4261C311.567 71.2424 307.897 69.4077 305.554 66.9219C303.234 64.4124 302.074 61.2756 302.074 57.5114C302.074 54.4337 302.938 51.7112 304.666 49.3438C306.418 46.9763 308.797 45.1179 311.804 43.7685C314.834 42.419 318.267 41.7443 322.102 41.7443C327.5 41.7443 331.737 42.928 334.815 45.2955C337.916 47.6629 340.118 50.7879 341.42 54.6705ZM377.899 98.1364C372.643 98.1364 368.11 96.9763 364.298 94.6562C360.51 92.3125 357.587 89.0455 355.527 84.8551C353.491 80.6411 352.473 75.7405 352.473 70.1534C352.473 64.5663 353.491 59.642 355.527 55.3807C357.587 51.0956 360.451 47.7576 364.121 45.3665C367.814 42.9517 372.123 41.7443 377.047 41.7443C379.888 41.7443 382.693 42.2178 385.463 43.1648C388.233 44.1117 390.754 45.6506 393.027 47.7812C395.3 49.8883 397.111 52.6818 398.46 56.1619C399.81 59.642 400.484 63.9271 400.484 69.017V72.5682H358.439V65.3239H391.962C391.962 62.2462 391.346 59.5 390.115 57.0852C388.908 54.6705 387.179 52.7647 384.93 51.3679C382.705 49.9711 380.077 49.2727 377.047 49.2727C373.709 49.2727 370.821 50.1013 368.382 51.7585C365.967 53.392 364.109 55.5227 362.807 58.1506C361.505 60.7784 360.854 63.5956 360.854 66.6023V71.4318C360.854 75.5511 361.564 79.0431 362.984 81.9077C364.429 84.7486 366.429 86.9148 368.986 88.4062C371.543 89.8741 374.514 90.608 377.899 90.608C380.101 90.608 382.089 90.3002 383.865 89.6847C385.664 89.0455 387.215 88.0985 388.517 86.8438C389.819 85.5653 390.825 83.9792 391.536 82.0852L399.632 84.358C398.78 87.1042 397.348 89.5189 395.335 91.6023C393.323 93.6619 390.837 95.2718 387.878 96.4318C384.919 97.5682 381.592 98.1364 377.899 98.1364Z" fill="#2A2A31"/>
<path d="M6.32102 97V24.2727H21.6974V84.3224H52.8764V97H6.32102ZM62.7752 97V42.4545H77.9031V97H62.7752ZM70.3746 35.4233C68.1256 35.4233 66.1961 34.6776 64.5863 33.1861C63.0001 31.6709 62.207 29.8598 62.207 27.7528C62.207 25.6695 63.0001 23.8821 64.5863 22.3906C66.1961 20.8755 68.1256 20.1179 70.3746 20.1179C72.6237 20.1179 74.5413 20.8755 76.1275 22.3906C77.7373 23.8821 78.5423 25.6695 78.5423 27.7528C78.5423 29.8598 77.7373 31.6709 76.1275 33.1861C74.5413 34.6776 72.6237 35.4233 70.3746 35.4233ZM135.405 58.0085L121.555 58.8608C121.319 57.6771 120.81 56.6117 120.028 55.6648C119.247 54.6941 118.217 53.9247 116.939 53.3565C115.684 52.7647 114.181 52.4688 112.429 52.4688C110.085 52.4688 108.108 52.9659 106.499 53.9602C104.889 54.9309 104.084 56.233 104.084 57.8665C104.084 59.1686 104.605 60.2694 105.646 61.169C106.688 62.0687 108.475 62.7907 111.009 63.3352L120.881 65.3239C126.184 66.4129 130.137 68.1648 132.741 70.5795C135.346 72.9943 136.648 76.1667 136.648 80.0966C136.648 83.6714 135.594 86.8082 133.487 89.5071C131.404 92.206 128.539 94.313 124.893 95.8281C121.271 97.3196 117.093 98.0653 112.358 98.0653C105.137 98.0653 99.3845 96.562 95.0994 93.5554C90.8381 90.5251 88.3404 86.4058 87.6065 81.1974L102.486 80.4162C102.936 82.6179 104.025 84.2988 105.753 85.4588C107.481 86.5952 109.695 87.1634 112.393 87.1634C115.045 87.1634 117.176 86.6544 118.786 85.6364C120.419 84.5947 121.248 83.2571 121.271 81.6236C121.248 80.2505 120.668 79.1259 119.531 78.25C118.395 77.3504 116.643 76.6638 114.276 76.1903L104.83 74.3082C99.5028 73.2429 95.5374 71.3963 92.9332 68.7685C90.3527 66.1406 89.0625 62.7907 89.0625 58.7188C89.0625 55.215 90.0095 52.1965 91.9034 49.6634C93.821 47.1302 96.508 45.1771 99.9645 43.804C103.445 42.4309 107.517 41.7443 112.18 41.7443C119.07 41.7443 124.491 43.2003 128.445 46.1122C132.422 49.0241 134.742 52.9896 135.405 58.0085ZM175.186 42.4545V53.8182H142.338V42.4545H175.186ZM149.796 29.3864H164.924V80.2386C164.924 81.6354 165.137 82.7244 165.563 83.5057C165.989 84.2633 166.581 84.7959 167.338 85.1037C168.12 85.4115 169.019 85.5653 170.037 85.5653C170.748 85.5653 171.458 85.5062 172.168 85.3878C172.878 85.2457 173.423 85.1392 173.801 85.0682L176.181 96.3253C175.423 96.562 174.358 96.8343 172.985 97.142C171.612 97.4735 169.943 97.6747 167.978 97.7457C164.332 97.8878 161.136 97.4025 158.39 96.2898C155.667 95.1771 153.548 93.4489 152.033 91.1051C150.518 88.7614 149.772 85.8021 149.796 82.2273V29.3864Z" fill="#6AC8B7"/>
<rect x="413" y="31" width="32" height="24" fill="#6AC8B7"/>
<rect x="413" y="60" width="32" height="23" fill="#2A2A31"/>
<circle cx="430" cy="102" r="15" fill="#D9D9D9"/>
</svg>
