<svg width="362" height="237" viewBox="0 0 362 237" fill="none" xmlns="http://www.w3.org/2000/svg">
<path d="M0 0H361.905V237H0V0Z" fill="#6AC8B7"/>
<path d="M258.046 50.5569H156.132V62.9102H258.046V50.5569Z" fill="white"/>
<path d="M91.277 56.7336C91.277 61.6201 92.7261 66.3969 95.4408 70.4598C98.1556 74.5228 102.014 77.6895 106.529 79.5595C111.043 81.4295 116.011 81.9187 120.804 80.9654C125.596 80.0121 129.999 77.6591 133.454 74.2038C136.909 70.7485 139.262 66.3462 140.215 61.5536C141.169 56.761 140.679 51.7933 138.809 47.2788C136.94 42.7643 133.773 38.9056 129.71 36.1908C125.647 33.4761 120.87 32.027 115.984 32.027C109.433 32.0344 103.153 34.6398 98.5215 39.2715C93.8898 43.9033 91.2844 50.1833 91.277 56.7336ZM115.984 44.3803C118.427 44.3803 120.815 45.1048 122.847 46.4622C124.878 47.8196 126.462 49.7489 127.397 52.0062C128.332 54.2635 128.576 56.7473 128.1 59.1436C127.623 61.5399 126.446 63.7411 124.719 65.4687C122.991 67.1963 120.79 68.3729 118.394 68.8495C115.997 69.3262 113.513 69.0815 111.256 68.1465C108.999 67.2116 107.07 65.6282 105.712 63.5967C104.355 61.5652 103.63 59.1769 103.63 56.7336C103.634 53.4584 104.937 50.3185 107.253 48.0026C109.568 45.6867 112.708 44.384 115.984 44.3803Z" fill="white"/>
<path d="M258.046 112.323H156.132V124.677H258.046V112.323Z" fill="white"/>
<path d="M115.984 143.207C120.87 143.207 125.647 141.758 129.71 139.043C133.773 136.328 136.94 132.469 138.809 127.955C140.679 123.44 141.169 118.473 140.215 113.68C139.262 108.887 136.909 104.485 133.454 101.03C129.999 97.5745 125.596 95.2214 120.804 94.2681C116.011 93.3148 111.043 93.8041 106.529 95.6741C102.014 97.5441 98.1556 100.711 95.4408 104.774C92.7261 108.837 91.277 113.613 91.277 118.5C91.2844 125.05 93.8898 131.33 98.5215 135.962C103.153 140.594 109.433 143.199 115.984 143.207ZM115.984 106.147C118.427 106.147 120.815 106.871 122.847 108.229C124.878 109.586 126.462 111.515 127.397 113.773C128.332 116.03 128.576 118.514 128.1 120.91C127.623 123.306 126.446 125.507 124.719 127.235C122.991 128.963 120.79 130.139 118.394 130.616C115.997 131.093 113.513 130.848 111.256 129.913C108.999 128.978 107.07 127.395 105.712 125.363C104.355 123.332 103.63 120.943 103.63 118.5C103.634 115.225 104.937 112.085 107.253 109.769C109.568 107.453 112.708 106.15 115.984 106.147Z" fill="white"/>
<path d="M258.046 174.09H156.132V186.443H258.046V174.09Z" fill="white"/>
<path d="M115.984 204.973C120.87 204.973 125.647 203.524 129.71 200.809C133.773 198.094 136.94 194.236 138.809 189.721C140.679 185.207 141.169 180.239 140.215 175.446C139.262 170.654 136.909 166.251 133.454 162.796C129.999 159.341 125.596 156.988 120.804 156.035C116.011 155.081 111.043 155.571 106.529 157.441C102.014 159.31 98.1556 162.477 95.4408 166.54C92.7261 170.603 91.277 175.38 91.277 180.266C91.2844 186.817 93.8898 193.097 98.5215 197.728C103.153 202.36 109.433 204.966 115.984 204.973ZM115.984 167.913C118.427 167.913 120.815 168.638 122.847 169.995C124.878 171.352 126.462 173.282 127.397 175.539C128.332 177.796 128.576 180.28 128.1 182.676C127.623 185.073 126.446 187.274 124.719 189.001C122.991 190.729 120.79 191.906 118.394 192.382C115.997 192.859 113.513 192.614 111.256 191.679C108.999 190.744 107.07 189.161 105.712 187.13C104.355 185.098 103.63 182.71 103.63 180.266C103.634 176.991 104.937 173.851 107.253 171.535C109.568 169.219 112.708 167.917 115.984 167.913Z" fill="white"/>
</svg>
